<?xml version="1.0" standalone="no"?>
<!DOCTYPE svg PUBLIC "-//W3C//DTD SVG 20010904//EN"
 "http://www.w3.org/TR/2001/REC-SVG-20010904/DTD/svg10.dtd">
<svg version="1.0" xmlns="http://www.w3.org/2000/svg"
 width="1134.000000pt" height="1134.000000pt" viewBox="0 0 1134.000000 1134.000000"
 preserveAspectRatio="xMidYMid meet">
<metadata>
Created by potrace 1.14, written by Peter Selinger 2001-2017
</metadata>
<g transform="translate(0.000000,1134.000000) scale(0.100000,-0.100000)"
fill="#000000" stroke="none">
<path d="M7625 11228 c-95 -23 -96 -23 -115 -30 -45 -16 -106 -33 -112 -30 -5
1 -8 -2 -8 -8 0 -5 -7 -10 -15 -10 -9 0 -55 -16 -103 -36 -48 -19 -91 -36 -97
-37 -5 -2 -20 -8 -32 -15 -12 -7 -29 -12 -37 -12 -9 0 -16 -4 -16 -8 0 -4 -17
-14 -37 -21 -44 -16 -390 -186 -408 -201 -6 -5 -15 -7 -18 -3 -4 3 -7 2 -7 -4
0 -6 -8 -13 -17 -16 -10 -4 -40 -20 -68 -37 -27 -17 -57 -33 -65 -37 -8 -4
-17 -9 -20 -13 -3 -3 -27 -19 -55 -34 -27 -16 -78 -49 -113 -72 -35 -24 -65
-44 -68 -44 -2 0 -45 -29 -94 -65 -50 -35 -90 -62 -90 -60 0 2 -11 -6 -25 -18
-49 -45 -93 -77 -104 -77 -6 0 -11 -5 -11 -11 0 -5 -4 -7 -10 -4 -5 3 -10 2
-10 -3 0 -5 -42 -40 -92 -77 -51 -38 -100 -76 -109 -84 -28 -27 -59 -51 -59
-46 0 3 -17 -11 -37 -30 -20 -19 -41 -35 -45 -35 -4 0 -19 -11 -33 -25 -14
-14 -25 -23 -25 -20 0 4 -19 -12 -42 -34 -24 -22 -49 -41 -55 -41 -7 0 -13 -4
-13 -8 0 -4 -26 -29 -57 -56 -32 -26 -99 -88 -150 -136 -50 -48 -94 -85 -97
-82 -3 3 -6 0 -6 -7 0 -7 -23 -34 -52 -59 -81 -74 -298 -294 -298 -304 0 -5
-4 -6 -10 -3 -5 3 -10 2 -10 -2 0 -5 -18 -28 -40 -52 -22 -24 -37 -48 -33 -54
3 -7 3 -9 -2 -5 -9 8 -55 -37 -55 -53 0 -6 -4 -7 -10 -4 -5 3 -10 -3 -10 -13
0 -11 -7 -25 -15 -32 -11 -9 -12 -16 -5 -26 9 -10 7 -11 -9 -7 -12 3 -21 9
-21 14 0 5 -6 9 -13 9 -7 0 -23 9 -35 20 -12 11 -23 20 -26 20 -5 0 -96 60
-106 70 -8 8 -43 29 -70 43 -14 6 -34 20 -44 29 -11 10 -25 18 -32 18 -7 0
-14 3 -16 8 -4 8 -48 35 -98 60 -19 9 -37 19 -40 22 -7 7 -47 29 -115 64 -33
16 -63 34 -66 39 -3 5 -9 8 -13 7 -4 -1 -44 16 -89 38 -129 63 -193 90 -317
139 -63 25 -124 48 -135 53 -57 23 -165 59 -165 55 0 -3 -13 1 -30 10 -16 8
-33 15 -37 15 -5 0 -33 7 -63 16 -30 9 -62 17 -70 19 -8 2 -35 8 -60 15 -25 6
-61 13 -80 16 -19 3 -53 10 -75 16 -22 6 -58 12 -80 14 -22 2 -71 6 -110 9
-261 23 -383 -1 -463 -89 -18 -20 -30 -36 -27 -36 3 0 0 -10 -7 -22 -6 -13
-13 -30 -14 -38 -1 -8 -5 -26 -9 -40 -10 -40 -12 -131 -3 -136 5 -3 5 -11 0
-17 -5 -7 -8 -19 -7 -28 4 -21 18 -167 19 -191 0 -10 3 -18 6 -18 3 0 6 -10 7
-23 1 -12 4 -31 7 -42 2 -11 5 -24 5 -28 1 -5 7 -5 14 -1 9 6 9 4 1 -7 -14
-18 7 -85 26 -81 6 1 9 -2 5 -8 -3 -6 -11 -8 -16 -5 -5 3 0 -14 11 -39 11 -26
17 -46 13 -46 -3 0 0 -6 6 -14 7 -8 14 -27 17 -43 3 -15 11 -33 19 -39 8 -6
12 -14 9 -17 -8 -7 18 -67 28 -67 5 0 7 -4 5 -8 -4 -13 26 -82 35 -82 5 0 7
-4 3 -9 -8 -13 35 -92 46 -85 5 3 6 10 3 16 -4 7 -2 8 5 4 9 -6 9 -11 1 -22
-9 -10 -7 -25 11 -64 12 -27 28 -50 35 -50 7 0 16 -5 20 -12 4 -7 3 -8 -4 -4
-27 16 0 -40 32 -67 11 -10 15 -16 8 -12 -12 6 -12 3 -2 -16 37 -70 76 -119
90 -114 12 5 12 4 3 -6 -10 -10 -9 -18 5 -41 9 -15 20 -28 24 -28 4 0 8 -9 8
-20 0 -11 7 -23 15 -26 8 -4 15 -13 15 -21 0 -9 6 -13 14 -10 10 4 13 1 10 -7
-3 -7 2 -20 10 -29 9 -9 16 -19 16 -24 0 -4 14 -22 30 -40 17 -18 30 -35 30
-39 0 -3 16 -29 36 -56 28 -38 39 -46 46 -36 7 9 8 8 4 -5 -4 -12 4 -32 24
-57 16 -21 30 -43 30 -50 0 -6 4 -9 9 -6 8 5 25 -29 22 -46 -1 -5 2 -7 7 -6
17 3 40 -15 35 -28 -6 -17 13 -19 21 -1 3 6 3 2 1 -10 -6 -20 8 -38 30 -38 6
0 11 -6 11 -12 1 -7 2 -18 3 -24 0 -5 6 -7 13 -3 7 4 8 3 4 -4 -7 -12 29 -54
38 -44 3 3 6 -1 6 -9 0 -8 8 -22 18 -31 9 -9 23 -24 30 -33 7 -8 18 -13 23 -9
6 3 9 -2 7 -12 -2 -12 2 -18 10 -16 8 1 11 -1 8 -6 -6 -11 30 -43 39 -34 3 4
3 -1 -1 -11 -4 -11 -1 -17 9 -17 8 0 18 -7 21 -16 3 -8 11 -12 16 -9 6 4 10 3
9 -2 -3 -18 1 -33 10 -33 5 0 25 -15 44 -32 67 -62 124 -109 189 -154 l65 -45
-35 -67 c-20 -37 -40 -70 -46 -74 -6 -4 -8 -8 -4 -8 8 0 -43 -102 -63 -127 -8
-9 -13 -18 -12 -19 5 -7 -41 -94 -50 -94 -4 0 -6 -4 -3 -9 3 -4 -4 -28 -16
-52 -12 -24 -23 -47 -24 -51 -1 -5 -3 -11 -4 -15 -1 -5 -2 -11 -1 -15 0 -5 -4
-8 -10 -8 -5 0 -8 -4 -4 -9 3 -5 0 -15 -7 -23 -7 -7 -14 -20 -15 -28 -3 -24
-10 -53 -21 -81 -6 -15 -8 -30 -5 -33 3 -3 1 -11 -4 -18 -6 -7 -11 -68 -12
-135 -2 -96 0 -123 11 -123 9 0 9 -3 2 -8 -6 -4 -10 -14 -8 -22 2 -8 6 -28 9
-45 4 -16 7 -38 8 -48 1 -9 6 -17 12 -17 5 0 3 -5 -5 -10 -8 -5 -10 -10 -4
-10 5 0 11 -11 12 -25 3 -45 5 -55 11 -55 4 0 8 -12 9 -27 1 -15 5 -29 10 -32
4 -3 9 -17 11 -31 1 -14 8 -28 15 -32 8 -6 7 -8 -2 -8 -7 0 -10 -5 -7 -10 5
-8 12 -7 23 2 14 10 15 10 5 -2 -7 -8 -13 -20 -13 -28 0 -12 3 -12 17 -1 12
10 15 11 9 1 -4 -7 -2 -19 4 -27 17 -21 2 -39 -18 -23 -16 12 -16 11 -2 -6 8
-11 15 -26 15 -35 0 -22 15 -42 25 -36 6 4 7 40 0 40 -1 0 -3 8 -5 18 -2 9 1
17 6 17 6 0 5 9 -1 23 -10 20 -10 20 3 5 8 -10 18 -14 22 -10 5 4 4 0 -1 -8
-14 -25 -13 -38 5 -35 9 2 18 4 20 4 3 1 0 6 -6 12 -6 6 -9 18 -6 25 3 8 -3
26 -12 40 -9 15 -13 24 -8 21 8 -5 10 52 3 61 -2 1 -3 8 -4 15 -1 6 -8 11 -16
9 -11 -3 -11 0 -1 12 8 10 13 56 14 135 1 65 5 122 9 126 4 4 3 17 -2 30 -5
13 -6 25 -4 28 5 5 13 44 19 92 1 11 3 20 5 20 1 0 4 13 6 29 3 16 10 39 17
50 6 12 11 24 12 27 1 16 50 109 57 109 5 0 6 5 3 10 -3 6 -1 10 4 10 13 0 15
-17 2 -24 -7 -4 -8 -251 -1 -251 1 0 4 -13 6 -30 2 -16 8 -48 14 -70 5 -22 11
-49 12 -60 2 -11 6 -22 9 -25 5 -4 16 -42 34 -110 2 -8 4 -15 5 -15 1 0 3 -7
5 -15 2 -8 11 -40 20 -70 14 -52 24 -98 31 -145 1 -11 3 -20 4 -20 2 0 9 -37
13 -78 2 -21 7 -40 11 -44 3 -3 0 -13 -7 -21 -9 -13 -9 -14 0 -8 10 6 12 -29
8 -161 -2 -92 -6 -181 -9 -198 -13 -92 -39 -189 -62 -233 -8 -15 -14 -33 -14
-40 0 -7 -5 -10 -12 -6 -6 4 -8 3 -5 -3 4 -6 -14 -41 -38 -79 -25 -37 -45 -65
-45 -60 0 4 -7 1 -15 -8 -8 -8 -15 -18 -15 -23 0 -12 -101 -71 -152 -89 -23
-8 -46 -20 -50 -27 -5 -8 -8 -9 -8 0 0 6 -9 9 -20 6 -11 -3 -17 -10 -13 -16 4
-6 1 -7 -7 -2 -8 5 -30 8 -49 8 -22 0 -42 7 -51 17 -15 17 -17 17 -40 -2 l-25
-20 24 3 c15 3 26 -2 28 -11 4 -13 3 -13 -7 0 -10 13 -11 13 -8 0 5 -17 57
-47 89 -52 13 -2 27 -7 30 -12 4 -4 17 -2 30 5 22 11 23 11 10 -4 -8 -10 -9
-17 -3 -17 6 0 14 5 17 10 3 6 12 10 18 10 7 0 6 -4 -3 -10 -17 -11 -17 -11
32 -14 20 -1 35 1 32 6 -3 5 -10 5 -16 2 -7 -4 -8 -2 -4 4 8 13 36 5 36 -12 0
-6 5 -4 10 5 5 9 19 15 32 14 13 -1 29 5 36 14 8 9 11 10 7 4 -7 -15 -3 -15
47 -4 44 10 54 -3 27 -37 -20 -25 -57 -139 -62 -190 -2 -17 -6 -35 -10 -38 -3
-3 -3 -12 -1 -19 3 -7 1 -16 -5 -20 -8 -4 -8 -12 -1 -26 8 -14 7 -19 -1 -19
-8 0 -8 -4 -1 -13 7 -8 7 -18 2 -27 -5 -9 -5 -19 1 -27 7 -8 7 -18 1 -29 -6
-11 -7 -27 -1 -40 6 -17 5 -22 -5 -18 -7 3 -19 -2 -26 -11 -7 -8 -18 -15 -25
-15 -7 0 -16 -7 -19 -16 -3 -8 -10 -12 -16 -9 -5 3 -10 -1 -10 -9 0 -9 -4 -16
-9 -16 -7 0 -86 -68 -153 -132 -15 -15 -28 -26 -28 -24 0 2 -19 -15 -43 -38
-23 -22 -69 -63 -101 -91 -32 -27 -85 -76 -117 -107 -33 -32 -59 -55 -59 -52
0 2 -19 -16 -42 -40 -22 -25 -46 -42 -52 -39 -6 3 -8 3 -4 -1 8 -9 -171 -192
-184 -188 -4 1 -7 -2 -6 -6 2 -4 -25 -37 -59 -72 -96 -101 -143 -154 -143
-163 0 -5 -4 -6 -9 -3 -4 3 -13 -6 -20 -20 -6 -14 -15 -23 -20 -20 -5 3 -12
-6 -15 -19 -4 -14 -10 -24 -14 -21 -4 2 -13 -2 -20 -10 -7 -8 -9 -14 -5 -14 4
0 -1 -7 -11 -15 -11 -8 -17 -15 -13 -15 4 0 -2 -10 -13 -22 -12 -13 -30 -38
-41 -55 -12 -18 -25 -33 -30 -33 -5 0 -9 -7 -9 -15 0 -9 -7 -18 -15 -21 -8 -4
-13 -10 -10 -14 2 -4 -4 -15 -15 -25 -11 -10 -17 -21 -15 -25 3 -4 -1 -10 -8
-13 -11 -4 -63 -101 -101 -189 -15 -33 -32 -119 -26 -134 1 -4 -4 -11 -12 -15
-10 -7 -10 -9 0 -9 9 0 10 -5 3 -18 -6 -10 -6 -24 -1 -32 5 -8 6 -19 2 -25
-10 -15 -12 -229 -2 -267 5 -18 10 -46 12 -63 2 -16 12 -36 23 -43 12 -8 14
-11 4 -9 -9 3 -16 -1 -16 -9 0 -7 5 -11 10 -7 5 3 7 -3 4 -13 -6 -20 -19 -98
-22 -126 -1 -9 3 -15 9 -12 6 3 3 -1 -7 -9 -14 -11 -15 -16 -5 -20 10 -4 10
-6 1 -6 -7 -1 -13 -8 -13 -17 0 -8 4 -13 9 -9 5 3 13 0 17 -6 4 -7 3 -10 -2
-7 -17 10 -47 -9 -51 -32 -2 -13 -8 -27 -13 -30 -11 -7 -23 -65 -21 -103 1
-30 50 -127 63 -127 4 0 8 -6 8 -14 0 -18 131 -156 148 -156 6 0 12 -3 12 -7
0 -5 24 -19 53 -32 103 -47 121 -51 177 -41 45 8 49 6 118 -78 55 -66 376
-382 389 -382 2 0 14 -10 26 -22 12 -13 29 -24 37 -26 8 -2 18 -9 22 -15 6 -9
8 -9 8 1 0 10 3 10 14 0 8 -7 10 -15 5 -16 -5 -2 -9 -12 -9 -21 0 -10 -3 -21
-7 -25 -4 -3 -8 -12 -9 -19 -1 -7 -14 -48 -29 -92 -15 -44 -28 -87 -30 -95 -2
-8 -4 -15 -5 -15 -2 0 -5 -12 -13 -50 -3 -11 -11 -40 -18 -65 -7 -25 -13 -55
-14 -68 l-2 -22 2633 0 c1614 0 2635 4 2639 9 3 5 1 12 -5 16 -6 4 -7 13 -1
23 9 18 6 33 -12 71 -10 20 -8 26 12 42 13 10 29 19 37 19 8 0 14 5 14 10 0 6
8 14 18 17 9 4 23 13 30 20 20 20 36 16 54 -15 9 -15 25 -36 35 -47 11 -11 22
-27 26 -35 20 -41 34 -59 40 -53 4 3 7 -1 7 -11 0 -9 11 -28 25 -41 l24 -25
891 0 890 0 -20 39 c-11 22 -24 42 -30 46 -5 3 -17 23 -27 43 -9 20 -20 39
-23 42 -11 9 -70 101 -70 109 0 4 -9 18 -20 31 -11 12 -17 27 -13 33 3 5 1 7
-5 3 -6 -3 -14 3 -18 16 -3 12 -10 26 -15 32 -19 23 -58 86 -53 86 2 0 -4 10
-16 22 -11 12 -20 28 -20 35 0 7 -4 13 -10 13 -5 0 -10 5 -10 10 0 6 -22 47
-50 91 -27 44 -50 84 -50 88 0 5 -11 25 -25 45 -13 20 -21 36 -17 36 4 0 2 4
-4 8 -6 4 -26 36 -44 72 -18 36 -35 67 -39 70 -8 7 -41 79 -38 84 1 2 -5 12
-14 22 -30 36 -71 142 -48 129 5 -4 9 -3 10 2 0 4 2 15 4 23 2 8 6 25 9 38 3
12 8 27 12 34 4 6 8 23 9 37 1 21 6 26 26 24 23 -3 23 -2 5 12 -18 14 -18 15
-2 15 9 0 15 4 11 9 -3 6 -8 29 -11 53 -15 110 -78 237 -163 326 -23 23 -41
47 -41 53 0 5 -4 8 -9 5 -4 -3 -13 6 -19 19 -7 14 -16 25 -22 25 -5 0 -10 6
-10 13 0 7 -9 18 -20 25 -12 7 -18 18 -14 24 4 6 3 8 -4 4 -6 -3 -14 0 -19 8
-7 13 -127 147 -181 202 -13 13 -20 24 -16 24 5 0 1 6 -8 13 -21 16 -128 166
-139 195 -5 12 -14 22 -20 22 -7 0 -9 3 -6 7 4 3 1 13 -7 22 -7 9 -26 41 -42
71 -16 30 -32 57 -36 58 -5 2 -8 8 -8 14 0 5 -14 29 -30 54 -17 24 -28 44 -25
44 4 0 -1 7 -9 16 -9 8 -14 19 -11 24 3 4 -1 10 -8 13 -6 2 -23 28 -37 56 -14
28 -28 51 -32 51 -5 0 -8 8 -8 18 0 9 -9 28 -20 42 -11 14 -20 33 -20 42 0 9
-5 18 -11 20 -5 2 -12 10 -14 18 -8 36 -18 60 -25 60 -4 0 -13 18 -20 40 -7
22 -17 40 -22 40 -4 0 -7 3 -6 8 3 10 -53 116 -66 124 -6 4 -8 8 -3 8 7 0 -38
75 -60 98 -7 7 -13 17 -13 21 0 4 -28 36 -63 72 -69 70 -147 141 -147 134 0
-5 -38 26 -66 53 -7 7 -15 11 -18 10 -2 -2 -16 7 -30 19 -15 13 -31 23 -36 23
-6 0 -10 5 -10 10 0 6 -7 10 -15 10 -8 0 -15 3 -15 8 0 4 -23 23 -50 42 -27
19 -50 39 -50 43 0 5 -4 5 -10 2 -5 -3 -10 -2 -10 4 0 5 -10 13 -22 17 l-22 7
20 16 c12 9 36 27 54 41 84 62 163 138 195 185 41 63 86 164 90 205 2 14 4 27
6 30 1 3 3 10 4 15 2 6 4 13 5 18 1 4 4 12 5 17 1 6 3 11 5 13 1 1 4 18 6 37
4 38 11 75 14 75 2 0 5 18 15 108 9 79 10 81 18 94 4 6 3 14 -2 18 -6 3 -7 15
-1 29 6 16 5 27 -3 35 -9 9 -9 14 -1 19 7 4 11 43 10 105 -1 58 3 97 9 97 7 0
7 3 0 8 -5 4 -10 42 -10 84 0 43 -4 78 -8 78 -4 0 -3 9 3 20 6 11 7 20 3 20
-4 0 -9 19 -10 43 -2 23 -5 52 -8 65 -7 29 6 28 41 -3 55 -47 72 -60 105 -85
18 -14 41 -33 51 -42 10 -10 22 -18 28 -18 6 0 10 -4 10 -8 0 -4 12 -15 28
-24 15 -9 36 -25 47 -35 30 -28 192 -137 306 -207 35 -21 66 -41 69 -45 3 -3
21 -14 40 -23 38 -18 92 -50 100 -58 3 -3 12 -6 20 -8 8 -2 22 -10 32 -19 9
-8 23 -15 31 -17 8 -1 21 -6 28 -12 30 -21 79 -45 79 -38 0 4 9 -1 19 -10 11
-10 25 -19 33 -20 7 -1 24 -8 38 -16 14 -8 28 -13 33 -12 4 1 7 -2 7 -6 0 -4
10 -8 22 -9 11 -1 24 -7 28 -13 4 -6 13 -13 21 -14 15 -3 32 -10 94 -36 22 -9
67 -27 100 -39 33 -13 68 -27 79 -33 10 -5 29 -12 42 -14 13 -2 36 -9 51 -16
31 -12 50 -18 73 -22 8 -1 25 -7 36 -14 12 -6 24 -9 27 -5 4 3 13 1 21 -6 8
-6 18 -11 22 -10 5 1 11 0 14 -1 7 -2 29 -7 65 -14 17 -3 46 -8 65 -12 46 -9
245 -10 291 -1 56 10 126 38 157 62 33 25 97 95 88 95 -3 0 2 16 10 35 8 19
15 47 16 62 1 16 6 34 11 41 6 8 5 12 -2 12 -7 0 -9 5 -6 10 15 24 6 134 -20
270 -10 49 -11 53 -19 72 -4 9 -5 22 -1 28 3 5 1 10 -5 10 -6 0 -8 5 -5 10 3
5 1 10 -6 10 -7 0 -10 3 -7 6 7 6 -37 133 -79 227 -23 52 -65 136 -117 232
-17 32 -128 199 -135 205 -4 3 -18 21 -31 40 -13 19 -29 40 -35 47 -5 6 -26
30 -45 54 -19 23 -41 48 -47 55 -7 7 -13 15 -13 18 0 3 -24 30 -52 60 -29 30
-74 76 -99 103 -72 75 -299 288 -299 279 0 -2 -15 10 -34 27 -55 51 -85 75
-89 71 -2 -3 -10 2 -17 11 -7 8 -19 15 -28 15 -8 0 -12 3 -9 6 4 4 -15 18 -41
32 -26 14 -49 28 -52 33 -3 4 -18 11 -33 14 -15 4 -30 11 -33 16 -6 11 -126
66 -159 74 -5 2 -17 4 -25 6 -8 2 -18 9 -22 14 -4 6 -11 10 -15 10 -18 0 -73
28 -73 37 0 5 -4 7 -9 3 -5 -3 -30 6 -55 20 -25 14 -48 25 -51 24 -5 0 -124
42 -170 61 -52 21 -122 52 -137 61 -10 5 -25 9 -33 9 -8 0 -15 4 -15 8 0 4
-20 14 -45 21 -25 7 -45 17 -45 23 0 5 -4 7 -9 3 -5 -3 -12 -1 -15 4 -3 5 -17
12 -31 15 -14 4 -55 20 -91 36 -35 17 -69 30 -74 30 -6 0 -10 5 -10 12 0 6 -3
9 -6 5 -5 -5 -104 39 -114 52 -3 4 -16 12 -30 19 -59 30 -101 60 -92 66 6 3 8
15 5 26 -3 11 -1 20 3 20 5 0 10 28 10 63 2 63 10 150 20 221 3 22 7 67 9 100
3 34 5 62 6 64 1 1 2 6 3 11 0 5 4 13 8 16 4 4 3 15 -2 25 -5 10 -7 20 -4 22
5 5 16 110 18 170 0 21 5 38 9 38 4 0 3 9 -3 20 -6 11 -7 20 -3 20 4 0 8 17 9
38 3 108 10 178 19 184 6 5 5 8 -3 8 -7 0 -10 5 -7 11 4 5 8 45 10 87 2 42 4
77 5 77 1 0 3 38 5 85 2 47 4 85 5 85 0 0 2 35 3 78 2 48 -1 77 -8 77 -5 0 -4
4 4 9 9 6 10 11 2 15 -6 4 -8 12 -5 18 4 6 8 36 9 67 1 31 3 57 5 59 1 1 2 22
3 47 0 25 3 45 6 45 3 0 6 22 6 50 -1 27 2 50 5 50 4 0 9 46 11 117 1 17 7 22
24 21 13 -1 22 -5 19 -9 -2 -4 4 -13 13 -20 14 -12 16 -12 8 1 -8 13 -6 13 8
1 9 -7 14 -18 10 -25 -3 -6 -3 -8 1 -5 4 4 37 -13 74 -37 37 -24 73 -44 80
-44 6 0 12 -5 12 -11 0 -5 5 -7 10 -4 6 3 10 1 10 -5 0 -6 4 -9 9 -6 5 4 11 3
13 -2 5 -12 77 -52 94 -52 8 0 14 -3 14 -8 0 -4 19 -16 43 -26 23 -10 49 -24
58 -32 9 -8 26 -16 38 -17 11 -1 21 -5 21 -10 0 -5 6 -7 12 -5 7 3 19 -1 26
-9 8 -7 18 -11 23 -8 5 4 9 1 9 -4 0 -6 3 -10 8 -9 6 1 29 -7 82 -29 8 -3 20
-7 27 -9 7 -1 38 -14 70 -29 86 -40 164 -71 278 -110 28 -9 59 -21 70 -25 11
-5 43 -16 70 -26 28 -10 53 -23 57 -28 4 -6 8 -8 8 -4 0 13 279 -116 291 -134
3 -5 9 -10 12 -10 19 0 47 -12 47 -19 0 -5 4 -9 10 -9 11 0 119 -67 138 -87 7
-7 16 -13 20 -13 4 0 23 -15 43 -33 20 -17 57 -50 83 -72 26 -22 65 -57 88
-77 22 -21 43 -38 47 -38 15 0 175 -166 208 -216 7 -11 32 -46 54 -79 23 -33
71 -101 105 -152 35 -50 64 -96 64 -102 0 -6 4 -11 8 -11 5 0 15 -12 23 -27
16 -33 18 -35 65 -90 23 -27 45 -43 59 -43 12 0 25 -3 28 -7 4 -3 17 -7 30 -7
20 -1 22 3 21 39 -3 48 -13 151 -19 185 -3 14 -7 50 -11 80 -3 30 -8 58 -10
61 -2 4 -6 23 -10 44 -3 20 -12 58 -19 83 -8 25 -12 49 -9 53 2 4 1 9 -4 11
-4 1 -22 44 -41 93 -34 93 -127 277 -142 283 -5 2 -9 8 -9 14 0 42 -331 377
-468 475 -77 54 -93 66 -141 108 -66 57 -224 217 -311 314 -41 46 -82 91 -90
100 -9 9 -42 50 -75 91 -33 41 -67 82 -75 91 -22 25 -33 40 -60 79 -14 19 -28
37 -32 40 -3 3 -47 59 -97 125 -49 66 -94 125 -98 130 -25 30 -173 236 -173
240 0 3 -9 15 -20 28 -41 46 -50 57 -45 57 6 0 -6 16 -36 49 -9 10 -31 40 -49
67 -19 27 -37 51 -40 54 -4 3 -38 43 -75 90 -37 47 -71 87 -74 90 -3 3 -31 34
-60 70 -66 78 -68 81 -181 200 -49 52 -90 98 -90 103 0 4 -7 7 -15 7 -9 0 -18
6 -21 14 -3 7 -35 38 -71 67 -36 29 -71 58 -77 64 -13 12 -52 38 -98 63 -86
49 -177 58 -293 30z m-5401 -2566 c3 -5 -1 -9 -9 -9 -8 0 -12 4 -9 9 3 4 7 8
9 8 2 0 6 -4 9 -8z m61 -142 c3 -5 1 -10 -4 -10 -6 0 -11 5 -11 10 0 6 2 10 4
10 3 0 8 -4 11 -10z m971 -2946 c1 -9 0 -13 -4 -10 -3 4 -7 14 -8 22 -1 9 0
13 4 10 3 -4 7 -14 8 -22z m2691 -879 c4 -4 2 -5 -4 -1 -7 4 -13 2 -13 -3 0
-6 -8 -11 -17 -10 -11 0 -13 3 -5 6 6 2 10 8 7 13 -7 11 22 7 32 -5z m-37 -35
c0 -5 -5 -10 -11 -10 -5 0 -7 5 -4 10 3 6 8 10 11 10 2 0 4 -4 4 -10z m-963
-562 c-3 -8 -6 -5 -6 6 -1 11 2 17 5 13 3 -3 4 -12 1 -19z m-47 -62 c0 -2 -7
-7 -16 -10 -8 -3 -12 -2 -9 4 6 10 25 14 25 6z m1230 -2090 c0 -3 -4 -8 -10
-11 -5 -3 -10 -1 -10 4 0 6 5 11 10 11 6 0 10 -2 10 -4z m-209 -473 c13 -16
12 -17 -3 -4 -10 7 -18 15 -18 17 0 8 8 3 21 -13z m130 -290 c13 -16 12 -17
-3 -4 -10 7 -18 15 -18 17 0 8 8 3 21 -13z m-187 -301 c3 -5 -1 -9 -9 -9 -8 0
-12 4 -9 9 3 4 7 8 9 8 2 0 6 -4 9 -8z m180 -108 c3 -8 2 -12 -4 -9 -6 3 -10
10 -10 16 0 14 7 11 14 -7z m-219 -34 c3 -5 1 -10 -4 -10 -6 0 -11 5 -11 10 0
6 2 10 4 10 3 0 8 -4 11 -10z m162 -55 c0 -8 -4 -12 -9 -9 -5 3 -6 10 -3 15 9
13 12 11 12 -6z m-142 -44 c-9 -8 -36 -10 -30 -2 2 4 11 8 20 8 8 0 13 -3 10
-6z m121 -3 c3 -4 -1 -5 -10 -4 -8 1 -18 5 -22 8 -3 4 1 5 10 4 8 -1 18 -5 22
-8z m138 4 c3 -5 -1 -9 -9 -9 -8 0 -12 4 -9 9 3 4 7 8 9 8 2 0 6 -4 9 -8z
m-40 -20 c3 -5 -1 -9 -9 -9 -8 0 -12 4 -9 9 3 4 7 8 9 8 2 0 6 -4 9 -8z m-194
-22 c0 -5 -2 -10 -4 -10 -3 0 -8 5 -11 10 -3 6 -1 10 4 10 6 0 11 -4 11 -10z
m100 -16 c0 -8 -19 -13 -24 -6 -3 5 1 9 9 9 8 0 15 -2 15 -3z m40 2 c0 -3 -4
-8 -10 -11 -5 -3 -10 -1 -10 4 0 6 5 11 10 11 6 0 10 -2 10 -4z m-120 -31 c0
-2 -9 -3 -19 -2 -11 0 -18 5 -15 9 4 6 34 0 34 -7z m-442 -20 c-3 -3 -9 2 -12
12 -6 14 -5 15 5 6 7 -7 10 -15 7 -18z m-320 -240 c-3 -3 -9 2 -12 12 -6 14
-5 15 5 6 7 -7 10 -15 7 -18z"/>
<path d="M3210 5656 c0 -2 7 -7 16 -10 8 -3 12 -2 9 4 -6 10 -25 14 -25 6z"/>
<path d="M2928 4618 c-8 -20 15 -53 30 -44 7 4 12 12 12 18 0 6 -7 5 -17 -3
-15 -13 -15 -12 -4 10 7 13 8 21 3 17 -6 -3 -12 -1 -14 6 -3 8 -6 6 -10 -4z"/>
</g>
</svg>
